<?xml version="1.0" encoding="UTF-8"?>
<svg viewBox="0 0 341.0368 312.7243" xmlns="http://www.w3.org/2000/svg">
 <defs>
  <radialGradient id="a" cx="395.39" cy="618.06" r="82.915" gradientTransform="matrix(.91385 0 0 .73448 34.062 164.11)" gradientUnits="userSpaceOnUse">
   <stop stop-color="#ffe632" offset="0"/>
   <stop stop-color="#ff5232" offset="1"/>
  </radialGradient>
 </defs>
 <g transform="translate(-201.19 -394.74)" stroke="#2d2d2d" stroke-linecap="round" stroke-linejoin="round" stroke-width="7.3293">
  <path d="m474.65 633.74c-43.418-79.932-120.38-86.968-158.51-72.863 8.292-48.195 31.502-105.68 30.679-157.23 87.49-19.453 148.5 16.604 191.74 85.646-42.514 61.873-62.356 114.34-74.141 191.74-67.722-63.84-109.04-111.14-168.75-122.63-66.259-12.741-137.4 39.916-50.961 79.617 29.648-23.996 53.255-28.249 96.998-0.45274 64.808 41.63 129.76 83.674 171.29 58.802 33.916-13.877 22.202-57.303-38.349-62.637z" fill="#5b5b5b"/>
  <path d="m350.89 555.09c-13.256 0.075-25.214 2.2764-34.747 5.8027l7.1436 5.7796c46.097 18.896 84.327 60.813 141.14 114.37 2.6518-17.418 5.7057-33.566 9.3398-48.849-32.604-58.707-83.458-77.323-122.87-77.1zm122.87 77.1c0.28968 0.5216 0.59173 1.021 0.8785 1.5489-0.22013-0.80195-0.44877-1.5834-0.67044-2.3812-0.0668 0.27865-0.14167 0.55303-0.20806 0.83227z" fill="url(#a)"/>
 </g>
</svg>
